<?xml version="1.0" standalone="no"?>
<!DOCTYPE svg PUBLIC "-//W3C//DTD SVG 20010904//EN"
 "http://www.w3.org/TR/2001/REC-SVG-20010904/DTD/svg10.dtd">
<svg version="1.0" xmlns="http://www.w3.org/2000/svg"
 width="260.000000pt" height="260.000000pt" viewBox="0 0 260.000000 260.000000"
 preserveAspectRatio="xMidYMid meet">
<metadata>
Created by potrace 1.11, written by Peter Selinger 2001-2013
</metadata>
<g transform="translate(0.000000,260.000000) scale(0.100000,-0.100000)"
fill="#000000" stroke="none">
<path d="M1055 2580 c-265 -56 -472 -167 -659 -352 -57 -57 -126 -135 -154
-174 -97 -138 -194 -367 -219 -522 -10 -58 -11 -390 -1 -453 24 -164 103 -358
211 -518 61 -91 227 -260 317 -323 138 -97 277 -160 448 -205 100 -26 121 -28
302 -28 152 0 211 4 270 18 231 55 403 140 575 284 228 192 392 482 441 782
23 141 14 382 -20 517 -82 329 -266 591 -555 787 -29 21 -57 37 -62 37 -5 0
-9 -296 -9 -707 0 -712 -2 -757 -37 -883 -64 -228 -280 -434 -513 -490 -262
-63 -558 91 -713 371 -69 126 -111 319 -86 397 9 29 14 32 49 32 44 0 50 -10
56 -90 3 -30 9 -77 14 -105 40 -203 207 -407 390 -476 70 -27 191 -36 261 -19
89 21 201 85 276 158 75 73 114 132 144 220 48 136 49 151 46 926 l-2 730 -60
24 c-142 57 -237 74 -435 78 -152 2 -201 0 -275 -16z"/>
</g>
</svg>
