<?xml version="1.0" standalone="no"?>
<!DOCTYPE svg PUBLIC "-//W3C//DTD SVG 20010904//EN"
 "http://www.w3.org/TR/2001/REC-SVG-20010904/DTD/svg10.dtd">
<svg version="1.0" xmlns="http://www.w3.org/2000/svg"
 width="700.000000pt" height="700.000000pt" viewBox="0 0 700.000000 700.000000"
 preserveAspectRatio="xMidYMid meet">
<metadata>
Created by potrace 1.11, written by Peter Selinger 2001-2013
</metadata>
<g transform="translate(0.000000,700.000000) scale(0.100000,-0.100000)"
fill="#000000" stroke="none">
<path d="M3299 6965 c-2 -1 -39 -6 -82 -9 -108 -8 -172 -16 -237 -27 -30 -5
-68 -12 -85 -14 -458 -79 -958 -283 -1346 -550 -74 -51 -239 -174 -249 -186
-3 -3 -43 -39 -90 -80 -221 -193 -429 -431 -598 -685 -67 -100 -212 -349 -212
-364 0 -5 -9 -24 -19 -42 -81 -137 -246 -618 -276 -802 -3 -17 -8 -44 -12 -61
-4 -16 -7 -34 -8 -40 0 -5 -5 -32 -9 -60 -4 -27 -10 -61 -12 -75 -2 -14 -6
-52 -10 -85 -3 -33 -8 -71 -11 -85 -3 -14 -6 -135 -8 -270 -2 -236 9 -417 35
-570 6 -36 13 -78 16 -95 45 -282 169 -656 309 -935 198 -394 484 -768 804
-1050 41 -36 79 -70 85 -75 62 -57 411 -305 430 -305 3 0 21 -11 41 -24 48
-33 337 -178 400 -201 28 -10 55 -22 60 -25 25 -18 369 -130 446 -145 8 -2 44
-10 80 -19 86 -21 213 -44 285 -51 32 -4 61 -8 64 -10 40 -25 711 -25 840 0 8
2 51 8 95 15 852 124 1630 573 2200 1271 161 197 349 509 467 774 104 233 211
594 244 825 2 19 7 44 9 55 2 11 7 47 10 80 4 33 8 70 10 82 22 132 21 596 0
727 -2 11 -8 55 -14 96 -41 302 -105 542 -223 840 -222 559 -610 1073 -1098
1451 -142 111 -419 290 -421 272 0 -4 0 -395 1 -868 6 -2770 6 -2902 -14
-3015 -31 -172 -41 -219 -67 -319 -65 -246 -172 -470 -312 -651 -59 -77 -256
-275 -345 -349 -247 -202 -559 -346 -847 -391 -95 -15 -282 -20 -380 -9 -888
96 -1668 1013 -1666 1960 0 168 38 224 151 224 112 0 149 -53 155 -227 4 -103
6 -132 21 -238 3 -19 16 -78 29 -130 101 -406 348 -770 695 -1025 410 -302
869 -347 1323 -131 240 115 487 322 650 545 61 84 157 279 196 398 50 155 93
370 106 533 7 80 6 703 -1 2465 -3 748 -5 1367 -4 1376 0 12 -36 31 -127 67
-204 80 -432 145 -633 181 -163 29 -159 28 -236 36 -38 4 -80 9 -94 12 -28 5
-506 14 -511 8z"/>
</g>
</svg>
