<?xml version="1.0" encoding="UTF-8" standalone="no"?>
<!-- Created with Inkscape (http://www.inkscape.org/) -->

<svg
   xmlns:dc="http://purl.org/dc/elements/1.1/"
   xmlns:cc="http://creativecommons.org/ns#"
   xmlns:rdf="http://www.w3.org/1999/02/22-rdf-syntax-ns#"
   xmlns:svg="http://www.w3.org/2000/svg"
   xmlns="http://www.w3.org/2000/svg"
   xmlns:sodipodi="http://sodipodi.sourceforge.net/DTD/sodipodi-0.dtd"
   xmlns:inkscape="http://www.inkscape.org/namespaces/inkscape"
   width="113.38583"
   height="113.38583"
   viewBox="0 0 113.38583 113.38583"
   id="svg3336"
   version="1.1"
   inkscape:version="0.91 r13725"
   inkscape:export-filename="/Users/jinjinzhao/Desktop/favicon.png"
   inkscape:export-xdpi="90.400002"
   inkscape:export-ydpi="90.400002"
   sodipodi:docname="favicon.svg">
  <defs
     id="defs3338">
    <marker
       inkscape:stockid="Arrow1Lstart"
       orient="auto"
       refY="0.0"
       refX="0.0"
       id="Arrow1Lstart"
       style="overflow:visible"
       inkscape:isstock="true">
      <path
         id="path4183"
         d="M 0.0,0.0 L 5.0,-5.0 L -12.5,0.0 L 5.0,5.0 L 0.0,0.0 z "
         style="fill-rule:evenodd;stroke:none;stroke-width:1pt;stroke-opacity:1;fill:#88aa00;fill-opacity:1"
         transform="scale(0.8) translate(12.5,0)" />
    </marker>
  </defs>
  <sodipodi:namedview
     id="base"
     pagecolor="#ffffff"
     bordercolor="#666666"
     borderopacity="1.0"
     inkscape:pageopacity="0.0"
     inkscape:pageshadow="2"
     inkscape:zoom="5.6"
     inkscape:cx="-4.5686436"
     inkscape:cy="58.433723"
     inkscape:document-units="px"
     inkscape:current-layer="layer1"
     showgrid="false"
     units="px"
     showguides="false"
     inkscape:window-width="1440"
     inkscape:window-height="790"
     inkscape:window-x="3"
     inkscape:window-y="15"
     inkscape:window-maximized="0" />
  <metadata
     id="metadata3341">
    <rdf:RDF>
      <cc:Work
         rdf:about="">
        <dc:format>image/svg+xml</dc:format>
        <dc:type
           rdf:resource="http://purl.org/dc/dcmitype/StillImage" />
        <dc:title />
      </cc:Work>
    </rdf:RDF>
  </metadata>
  <g
     inkscape:label="Layer 1"
     inkscape:groupmode="layer"
     id="layer1"
     transform="translate(0,-938.97638)">
    <path
       style="fill:#e9c6af;fill-rule:evenodd;stroke:#000000;stroke-width:0;stroke-linecap:butt;stroke-linejoin:miter;stroke-opacity:1;stroke-miterlimit:4;stroke-dasharray:none"
       d="M 56.808594 0.50390625 A 56.313213 56.439484 0 0 0 0.49609375 56.943359 A 56.313213 56.439484 0 0 0 56.808594 113.38281 A 56.313213 56.439484 0 0 0 113.12109 56.943359 A 56.313213 56.439484 0 0 0 84.345703 7.7441406 L 84.332031 8.1621094 L 84.574219 63.591797 C 84.721936 71.226097 83.100917 80.702634 77.259766 87.490234 C 72.249685 93.312134 65.564806 97.631069 58.089844 98.605469 C 50.614881 99.579969 42.475452 97.014106 35.255859 89.753906 C 31.076885 85.551406 25.216498 77.098391 25.533203 65.587891 A 2.50025 2.50025 0 1 1 30.53125 65.724609 C 30.263647 75.450509 35.35141 82.757716 38.802734 86.228516 C 45.145382 92.606816 51.485557 94.425137 57.443359 93.648438 C 63.401161 92.871738 69.102659 89.304316 73.470703 84.228516 C 78.063583 78.891416 79.708291 70.484794 79.576172 63.683594 A 2.50025 2.50025 0 0 1 79.574219 63.646484 L 79.332031 8.1386719 A 2.50025 2.50025 0 0 1 79.332031 8.0488281 L 79.419922 5.2890625 A 56.313213 56.439484 0 0 0 56.808594 0.50390625 z "
       transform="translate(0,938.97638)"
       id="path3356" />
    <path
       style="fill:#8a6f91;stroke-width:0.1;stroke-miterlimit:4;stroke-dasharray:none"
       d=""
       id="path3358"
       inkscape:connector-curvature="0"
       transform="translate(0,938.97638)" />
    <path
       style="fill:#ff7f2a;stroke-width:0;stroke-linecap:round;stroke-linejoin:round;stroke-miterlimit:4;stroke-dasharray:none"
       d="M 51.895643,113.12513 C 40.033525,112.01201 29.087746,107.38282 20.199214,99.720064 9.3535482,90.370079 2.5356056,77.471327 0.91340651,63.233566 0.54071303,59.9625 0.54097428,53.973636 0.91395301,50.70637 2.3953011,37.729868 7.9629723,26.170796 17.163713,16.970157 25.680688,8.4532777 36.512095,3.0263621 48.765018,1.1367929 51.759941,0.67493454 58.775736,0.49224496 61.82542,0.79670316 67.312111,1.3444543 72.159389,2.489008 77.074214,4.3972946 l 2.232143,0.8666773 0.08929,25.4065691 c 0.121139,34.470459 0.11228,36.728373 -0.151511,38.620856 -0.758571,5.442092 -2.282046,9.869848 -4.54096,13.197625 -2.626234,3.8689 -7.507188,7.813766 -11.914672,9.629628 -3.043627,1.253961 -4.15932,1.457293 -7.946428,1.448209 -3.170027,-0.0076 -3.498409,-0.04013 -5,-0.495223 -6.906524,-2.093209 -13.274792,-7.8546 -16.613454,-15.030239 -1.602473,-3.444125 -2.382464,-6.597745 -2.517486,-10.178572 -0.108694,-2.882643 -0.232559,-3.411795 -0.962293,-4.110923 -0.431878,-0.413766 -0.723743,-0.521461 -1.558371,-0.575016 -1.9573,-0.125593 -2.723397,0.837955 -2.723397,3.425321 0,11.939502 7.336672,23.833845 18.117808,29.372913 10.304975,5.29443 21.854935,3.120657 31.231028,-5.877864 0.970875,-0.931779 2.284107,-2.338029 2.918295,-3.125 3.667537,-4.551106 5.932246,-10.611006 6.674437,-17.859431 0.1695,-1.655378 0.191334,-8.855846 0.09598,-31.651786 -0.06789,-16.22991 -0.07043,-29.5089283 -0.0056,-29.5089283 0.481558,0 5.066614,3.1047673 7.631744,5.1678283 11.417595,9.18285 18.869345,22.80335 20.570915,37.600029 0.37962,3.301089 0.38022,9.210518 0.001,12.5 -1.29044,11.201895 -5.73329,21.555762 -12.911331,30.089286 -1.856446,2.207012 -5.749496,6.006107 -7.895941,7.705376 -8.219396,6.50704 -17.372829,10.40138 -27.857143,11.85188 -2.429275,0.33609 -9.673178,0.49037 -12.142857,0.25862 l 2.5e-5,0 z"
       id="path4177"
       inkscape:connector-curvature="0"
       transform="translate(0,938.97638)"
       inkscape:export-xdpi="90.400002"
       inkscape:export-ydpi="90.400002" />
    <path
       style="fill:#d40000;stroke-width:0;stroke-linecap:round;stroke-linejoin:round;stroke-miterlimit:4;stroke-dasharray:none"
       d="M 49.717071,112.81843 C 36.932924,111.03568 25.862446,105.538 16.909659,96.52603 8.5877125,88.149066 3.1658387,77.335791 1.2214715,65.237825 0.83673345,62.843963 0.66260754,53.787218 0.94961436,51.097823 2.8431795,33.354189 12.854334,17.679229 28.12414,8.5493218 34.218176,4.9056627 41.241494,2.4061163 48.768456,1.2021646 51.593764,0.75025125 60.254571,0.6489133 63.288499,1.0322692 c 3.055363,0.3860642 6.302165,1.0388803 8.928572,1.7952183 2.030225,0.5846527 6.704473,2.2695731 6.93461,2.4997104 0.224334,0.2243339 0.266325,61.7178311 0.04344,63.6173251 -0.635145,5.412925 -2.538381,10.803615 -4.966793,14.067856 -3.668241,4.9308 -9.874904,9.134617 -15.028416,10.178853 -1.143059,0.231613 -2.18752,0.278048 -4.973799,0.221131 -3.458078,-0.07064 -3.558262,-0.0835 -5.134044,-0.659058 -6.676413,-2.438571 -12.3496,-7.664889 -15.607016,-14.377669 -1.698191,-3.499575 -2.401936,-6.278566 -2.713574,-10.715516 -0.21248,-3.025206 -0.487084,-3.804268 -1.51243,-4.290827 -0.795123,-0.377311 -2.010836,-0.346425 -2.69108,0.06837 -0.968424,0.590514 -1.206977,1.565285 -1.086445,4.439403 0.343073,8.180724 4.043854,16.309243 10.154223,22.303079 2.922836,2.867091 5.319043,4.567016 8.764761,6.217925 3.488289,1.671305 6.732598,2.411641 10.563166,2.410468 6.03077,-0.0019 11.188816,-1.841788 16.71768,-5.963402 1.984538,-1.479416 5.235227,-4.671798 6.54382,-6.426443 3.171702,-4.25282 5.151988,-9.398911 6.051711,-15.726343 0.212912,-1.497335 0.255611,-6.818478 0.258341,-32.195594 0.0021,-19.877659 0.06428,-30.4017861 0.179503,-30.4017861 0.319497,0 5.410729,3.5173111 7.413054,5.1213561 4.907232,3.931142 9.701445,9.50231 13.034165,15.146501 3.64633,6.175304 6.23654,13.663654 7.35035,21.25 0.24335,1.657541 0.31512,3.315704 0.31688,7.321429 0.002,4.52221 -0.0505,5.529384 -0.41425,7.946428 -1.52753,10.150381 -5.5426,19.441945 -11.80615,27.321429 -1.847615,2.324285 -6.270777,6.744482 -8.706911,8.701069 -7.546077,6.06066 -16.329236,9.95693 -26.308488,11.67062 -2.951642,0.50687 -12.896848,0.66011 -15.87631,0.24463 z"
       id="path4144"
       inkscape:connector-curvature="0"
       transform="translate(0,938.97638)" />
  </g>
</svg>
