<?xml version="1.0" encoding="UTF-8" standalone="no"?>
<!-- Created with Inkscape (http://www.inkscape.org/) -->

<svg
   xmlns:dc="http://purl.org/dc/elements/1.1/"
   xmlns:cc="http://creativecommons.org/ns#"
   xmlns:rdf="http://www.w3.org/1999/02/22-rdf-syntax-ns#"
   xmlns:svg="http://www.w3.org/2000/svg"
   xmlns="http://www.w3.org/2000/svg"
   xmlns:sodipodi="http://sodipodi.sourceforge.net/DTD/sodipodi-0.dtd"
   xmlns:inkscape="http://www.inkscape.org/namespaces/inkscape"
   width="113.38583"
   height="113.38583"
   viewBox="0 0 113.38583 113.38583"
   id="svg3336"
   version="1.1"
   inkscape:version="0.91 r13725"
   inkscape:export-filename="/Users/jinjinzhao/Desktop/favicon.png"
   inkscape:export-xdpi="90.400002"
   inkscape:export-ydpi="90.400002"
   sodipodi:docname="favicon.svg">
  <defs
     id="defs3338">
    <marker
       inkscape:stockid="Arrow1Lstart"
       orient="auto"
       refY="0.0"
       refX="0.0"
       id="Arrow1Lstart"
       style="overflow:visible"
       inkscape:isstock="true">
      <path
         id="path4183"
         d="M 0.0,0.0 L 5.0,-5.0 L -12.5,0.0 L 5.0,5.0 L 0.0,0.0 z "
         style="fill-rule:evenodd;stroke:none;stroke-width:1pt;stroke-opacity:1;fill:#88aa00;fill-opacity:1"
         transform="scale(0.8) translate(12.5,0)" />
    </marker>
  </defs>
  <sodipodi:namedview
     id="base"
     pagecolor="#ffffff"
     bordercolor="#666666"
     borderopacity="1.0"
     inkscape:pageopacity="0.0"
     inkscape:pageshadow="2"
     inkscape:zoom="5.6"
     inkscape:cx="24.627785"
     inkscape:cy="58.433723"
     inkscape:document-units="px"
     inkscape:current-layer="layer1"
     showgrid="false"
     units="px"
     showguides="false"
     inkscape:window-width="1440"
     inkscape:window-height="851"
     inkscape:window-x="0"
     inkscape:window-y="1"
     inkscape:window-maximized="1" />
  <metadata
     id="metadata3341">
    <rdf:RDF>
      <cc:Work
         rdf:about="">
        <dc:format>image/svg+xml</dc:format>
        <dc:type
           rdf:resource="http://purl.org/dc/dcmitype/StillImage" />
        <dc:title />
      </cc:Work>
    </rdf:RDF>
  </metadata>
  <g
     inkscape:label="Layer 1"
     inkscape:groupmode="layer"
     id="layer1"
     transform="translate(0,-938.97638)">
    <path
       style="fill:#e9c6af;fill-rule:evenodd;stroke:#000000;stroke-width:0;stroke-linecap:butt;stroke-linejoin:miter;stroke-opacity:1;stroke-miterlimit:4;stroke-dasharray:none"
       d="M 56.808594 0.50390625 A 56.313213 56.439484 0 0 0 0.49609375 56.943359 A 56.313213 56.439484 0 0 0 56.808594 113.38281 A 56.313213 56.439484 0 0 0 113.12109 56.943359 A 56.313213 56.439484 0 0 0 84.345703 7.7441406 L 84.332031 8.1621094 L 84.574219 63.591797 C 84.721936 71.226097 83.100917 80.702634 77.259766 87.490234 C 72.249685 93.312134 65.564806 97.631069 58.089844 98.605469 C 50.614881 99.579969 42.475452 97.014106 35.255859 89.753906 C 31.076885 85.551406 25.216498 77.098391 25.533203 65.587891 A 2.50025 2.50025 0 1 1 30.53125 65.724609 C 30.263647 75.450509 35.35141 82.757716 38.802734 86.228516 C 45.145382 92.606816 51.485557 94.425137 57.443359 93.648438 C 63.401161 92.871738 69.102659 89.304316 73.470703 84.228516 C 78.063583 78.891416 79.708291 70.484794 79.576172 63.683594 A 2.50025 2.50025 0 0 1 79.574219 63.646484 L 79.332031 8.1386719 A 2.50025 2.50025 0 0 1 79.332031 8.0488281 L 79.419922 5.2890625 A 56.313213 56.439484 0 0 0 56.808594 0.50390625 z "
       transform="translate(0,938.97638)"
       id="path3356" />
    <path
       style="fill:#8a6f91;stroke-width:0.1;stroke-miterlimit:4;stroke-dasharray:none"
       d=""
       id="path3358"
       inkscape:connector-curvature="0"
       transform="translate(0,938.97638)" />
    <path
       style="fill:#ff7f2a;stroke-width:0;stroke-linecap:round;stroke-linejoin:round;stroke-miterlimit:4;stroke-dasharray:none"
       d="M 51.895643,113.12513 C 40.033525,112.01201 29.087746,107.38282 20.199214,99.720064 9.3535482,90.370079 2.5356056,77.471327 0.91340651,63.233566 0.54071303,59.9625 0.54097428,53.973636 0.91395301,50.70637 2.3953011,37.729868 7.9629723,26.170796 17.163713,16.970157 25.680688,8.4532777 36.512095,3.0263621 48.765018,1.1367929 51.759941,0.67493454 58.775736,0.49224496 61.82542,0.79670316 67.312111,1.3444543 72.159389,2.489008 77.074214,4.3972946 l 2.232143,0.8666773 0.08929,25.4065691 c 0.121139,34.470459 0.11228,36.728373 -0.151511,38.620856 -0.758571,5.442092 -2.282046,9.869848 -4.54096,13.197625 -2.626234,3.8689 -7.507188,7.813766 -11.914672,9.629628 -3.043627,1.253961 -4.15932,1.457293 -7.946428,1.448209 -3.170027,-0.0076 -3.498409,-0.04013 -5,-0.495223 -6.906524,-2.093209 -13.274792,-7.8546 -16.613454,-15.030239 -1.602473,-3.444125 -2.382464,-6.597745 -2.517486,-10.178572 -0.108694,-2.882643 -0.232559,-3.411795 -0.962293,-4.110923 -0.431878,-0.413766 -0.723743,-0.521461 -1.558371,-0.575016 -1.9573,-0.125593 -2.723397,0.837955 -2.723397,3.425321 0,11.939502 7.336672,23.833845 18.117808,29.372913 10.304975,5.29443 21.854935,3.120657 31.231028,-5.877864 0.970875,-0.931779 2.284107,-2.338029 2.918295,-3.125 3.667537,-4.551106 5.932246,-10.611006 6.674437,-17.859431 0.1695,-1.655378 0.191334,-8.855846 0.09598,-31.651786 -0.06789,-16.22991 -0.07043,-29.5089283 -0.0056,-29.5089283 0.481558,0 5.066614,3.1047673 7.631744,5.1678283 11.417595,9.18285 18.869345,22.80335 20.570915,37.600029 0.37962,3.301089 0.38022,9.210518 0.001,12.5 -1.29044,11.201895 -5.73329,21.555762 -12.911331,30.089286 -1.856446,2.207012 -5.749496,6.006107 -7.895941,7.705376 -8.219396,6.50704 -17.372829,10.40138 -27.857143,11.85188 -2.429275,0.33609 -9.673178,0.49037 -12.142857,0.25862 l 2.5e-5,0 z"
       id="path4177"
       inkscape:connector-curvature="0"
       transform="translate(0,938.97638)"
       inkscape:export-xdpi="90.400002"
       inkscape:export-ydpi="90.400002" />
  </g>
</svg>
